<mxfile host="app.diagrams.net" modified="2023-06-08T03:18:19.532Z" agent="Mozilla/5.0 (Windows NT 10.0; Win64; x64) AppleWebKit/537.36 (KHTML, like Gecko) Chrome/113.0.0.0 Safari/537.36" version="21.3.5" etag="RAlpUzCPKhb1tyGBRrVI" type="github">
  <diagram name="第 1 页" id="0yfQaqEvXl80B5sWSSum">
    <mxGraphModel>
      <root>
        <mxCell id="0" />
        <mxCell id="1" parent="0" />
      </root>
    </mxGraphModel>
  </diagram>
</mxfile>
